<?xml version="1.0" encoding="utf-8"?>
<!-- Generator: Adobe Illustrator 22.0.1, SVG Export Plug-In . SVG Version: 6.00 Build 0)  -->
<svg version="1.1" id="Layer_1" xmlns="http://www.w3.org/2000/svg" xmlns:xlink="http://www.w3.org/1999/xlink" x="0px" y="0px"
	 viewBox="0 0 256 256" style="enable-background:new 0 0 256 256;" xml:space="preserve">
<style type="text/css">
	.st0{fill:#FFFFFF;}
</style>
<g>
	<g id="Layer_2_1_">
		<g id="Layer_1-2">
			
				<image style="overflow:visible;opacity:0.75;enable-background:new    ;" width="6720" height="5550" xlink:href="4F2870EA.png"  transform="matrix(3.663664e-02 0 0 3.663664e-02 4.9009 26.3333)">
			</image>
			<path class="st0" d="M77.8,225c3.3-5.5,6.5-10.7,9.6-15.9c14.9-24.5,29.8-48.9,44.7-73.4c1.6-2.6,1.6-4.9,0-7.6
				c-10.5-17-20.8-34.1-31.2-51.2c-1.5-2.4-1.4-4.4,0-6.8c8.2-13.3,16.3-26.6,24.4-39.9c1.4-2.3,2-2.3,3.4,0.2
				c8.2,13.5,16.4,27,24.6,40.5c23.6,38.8,47.1,77.7,70.7,116.5c7.2,11.9,14.5,23.8,21.7,35.8c0.3,0.5,0.6,1.1,1.1,1.8
				c-1.4,0.1-2.5,0.3-3.7,0.3c-16.4,0-32.9,0-49.3,0.1c-2.3,0-3.8-0.9-4.9-2.8c-7.9-13.1-15.8-26.2-23.7-39.3
				c-0.9-1.4-1.9-2.8-3-4.4c-1.8,3-3.4,5.6-5.1,8.3c-7.2,11.8-14.3,23.7-21.5,35.5c-1.1,1.9-2.5,2.7-4.7,2.6
				c-16.5-0.1-33,0-49.5-0.1C80.4,225.3,79.3,225.2,77.8,225z"/>
			<path class="st0" d="M89.7,88.9c0.8,1,1.6,1.8,2.1,2.7c8.2,13.5,16.4,27.1,24.6,40.6c1.2,2,1.2,3.8-0.1,5.8
				c-17.1,28.1-34.1,56.2-51.1,84.3c-1.3,2.2-2.8,3.1-5.4,3.1c-16.5-0.1-33.1-0.1-49.6-0.1c-0.9,0-1.9-0.1-3.2-0.2
				C34.6,179.7,62,134.5,89.7,88.9z"/>
		</g>
	</g>
</g>
</svg>
